<svg version="1.1" id="Layer_1" xmlns="http://www.w3.org/2000/svg" xmlns:xlink="http://www.w3.org/1999/xlink" x="0px" y="0px"
	 width="100%" viewBox="0 0 600 600" enable-background="new 0 0 600 600" xml:space="preserve">
<path fill="#3A3A3A" opacity="1.000000" stroke="none" 
	d="
M515.000000,1.000001 
	C543.614563,1.000000 572.229065,1.000000 601.000000,1.000000 
	C601.000000,52.354126 601.000000,103.708405 600.662598,155.600571 
	C594.228210,161.247574 588.061646,166.276382 582.048950,171.482941 
	C570.492493,181.490036 559.039673,191.616730 547.513245,201.658737 
	C535.738525,211.917038 523.926208,222.132172 512.132141,232.368271 
	C500.212708,242.713196 488.247894,253.006683 476.404114,263.437592 
	C472.484589,266.889526 468.879395,270.698395 464.867920,274.579498 
	C349.437531,314.689850 234.269730,354.564789 117.979752,394.828247 
	C120.384628,395.892212 121.634972,396.555237 122.956276,397.013672 
	C147.113815,405.395355 171.293015,413.714722 195.440231,422.125946 
	C217.995453,429.982574 240.518616,437.931274 262.985107,446.198059 
	C262.117310,447.992310 261.621735,449.758392 260.471985,450.807434 
	C254.956589,455.839447 249.273575,460.688263 243.632874,465.582306 
	C231.852661,475.803223 220.036880,485.983276 208.281982,496.233246 
	C196.774307,506.267639 185.345322,516.392273 173.842972,526.432800 
	C161.718613,537.016235 149.555389,547.555237 137.396072,558.098633 
	C125.738121,568.207214 113.978729,578.200989 102.439232,588.442810 
	C98.041817,592.345703 94.132050,596.798096 90.000000,601.000000 
	C60.387276,601.000000 30.774553,601.000000 1.000000,601.000000 
	C1.000000,550.645874 1.000000,500.291595 1.347072,449.404724 
	C6.856033,444.761871 12.147574,440.802917 17.155275,436.512665 
	C31.649385,424.095154 46.057648,411.576843 60.445206,399.035706 
	C71.958076,389.000305 83.346626,378.822174 94.870743,368.799805 
	C111.275841,354.532593 127.794426,340.395203 144.103241,326.019409 
	C145.084381,325.154572 144.643478,322.676483 145.120483,320.684814 
	C258.506897,281.260345 371.637543,242.101395 484.761017,202.921722 
	C485.856659,202.542252 486.856720,201.886948 488.543091,201.037018 
	C486.960358,200.433212 486.223785,200.129608 485.472351,199.868790 
	C457.721161,190.236511 429.955292,180.646271 402.220856,170.966049 
	C383.446503,164.413208 364.716064,157.734604 346.060486,150.784332 
	C350.909912,146.097153 355.583557,141.645020 360.435913,137.397049 
	C372.162140,127.131416 383.995483,116.988251 395.741028,106.744568 
	C407.239563,96.716362 418.661743,86.600632 430.156281,76.567841 
	C442.272400,65.992561 454.428589,55.463100 466.578308,44.926346 
	C478.227081,34.823971 489.985229,24.844894 501.500916,14.593263 
	C506.261536,10.355253 510.515564,5.548237 515.000000,1.000001 
z"/>
<path fill="#343434" opacity="1.000000" stroke="none" 
	d="
M144.864288,320.949066 
	C144.643478,322.676483 145.084381,325.154572 144.103241,326.019409 
	C127.794426,340.395203 111.275841,354.532593 94.870743,368.799805 
	C83.346626,378.822174 71.958076,389.000305 60.445206,399.035706 
	C46.057648,411.576843 31.649385,424.095154 17.155275,436.512665 
	C12.147574,440.802917 6.856033,444.761871 1.347072,448.936066 
	C1.000000,299.734558 1.000000,150.469147 1.000000,1.000000 
	C172.020844,1.000000 343.041748,1.000000 514.531372,1.000001 
	C510.515564,5.548237 506.261536,10.355253 501.500916,14.593263 
	C489.985229,24.844894 478.227081,34.823971 466.578308,44.926346 
	C454.428589,55.463100 442.272400,65.992561 430.156281,76.567841 
	C418.661743,86.600632 407.239563,96.716362 395.741028,106.744568 
	C383.995483,116.988251 372.162140,127.131416 360.435913,137.397049 
	C355.583557,141.645020 350.909912,146.097153 345.672913,150.771240 
	C269.602661,124.968834 194.014481,98.851639 118.169937,72.645866 
	C118.169937,158.833771 118.169937,244.195129 118.169937,329.953156 
	C127.306526,326.871338 136.085403,323.910217 144.864288,320.949066 
z"/>
<path fill="#464646" opacity="1.000000" stroke="none" 
	d="
M601.000000,360.000000 
	C601.000000,440.265320 601.000000,520.530640 601.000000,601.000000 
	C509.312531,601.000000 417.624939,601.000000 325.537476,600.663940 
	C327.592896,597.659119 329.855042,594.775085 332.542633,592.365540 
	C338.601990,586.933044 344.919281,581.789612 351.045929,576.430603 
	C362.678680,566.255371 374.201813,555.954529 385.861755,545.810791 
	C399.648987,533.816345 413.611664,522.021545 427.256500,509.868744 
	C428.672821,508.607300 428.449707,505.505157 429.358124,503.241028 
	C449.299438,509.999817 468.869843,516.774597 489.128815,523.787781 
	C489.128815,521.127747 489.123871,519.329041 489.129608,517.530334 
	C489.198456,496.038910 489.268860,474.547485 489.741638,453.029480 
	C491.751831,452.234680 493.618805,451.770020 494.926819,450.651642 
	C509.284821,438.375244 523.606995,426.055695 537.837036,413.631134 
	C554.816895,398.805542 571.641479,383.801605 588.664124,369.025665 
	C592.498596,365.697357 596.873779,362.992096 601.000000,360.000000 
z"/>
<path fill="#3F3F40" opacity="1.000000" stroke="none" 
	d="
M428.987244,503.257050 
	C428.449707,505.505157 428.672821,508.607300 427.256500,509.868744 
	C413.611664,522.021545 399.648987,533.816345 385.861755,545.810791 
	C374.201813,555.954529 362.678680,566.255371 351.045929,576.430603 
	C344.919281,581.789612 338.601990,586.933044 332.542633,592.365540 
	C329.855042,594.775085 327.592896,597.659119 325.068848,600.663940 
	C246.979111,601.000000 168.958206,601.000000 90.468658,601.000000 
	C94.132050,596.798096 98.041817,592.345703 102.439232,588.442810 
	C113.978729,578.200989 125.738121,568.207214 137.396072,558.098633 
	C149.555389,547.555237 161.718613,537.016235 173.842972,526.432800 
	C185.345322,516.392273 196.774307,506.267639 208.281982,496.233246 
	C220.036880,485.983276 231.852661,475.803223 243.632874,465.582306 
	C249.273575,460.688263 254.956589,455.839447 260.471985,450.807434 
	C261.621735,449.758392 262.117310,447.992310 263.372192,446.227112 
	C306.038300,460.760376 348.227692,475.677032 390.466156,490.453430 
	C403.236664,494.920990 416.143097,499.000031 428.987244,503.257050 
z"/>
<path fill="#3F4040" opacity="1.000000" stroke="none" 
	d="
M601.000000,359.531372 
	C596.873779,362.992096 592.498596,365.697357 588.664124,369.025665 
	C571.641479,383.801605 554.816895,398.805542 537.837036,413.631134 
	C523.606995,426.055695 509.284821,438.375244 494.926819,450.651642 
	C493.618805,451.770020 491.751831,452.234680 489.658997,452.593597 
	C489.173584,390.477997 489.173584,328.771667 489.173584,266.475616 
	C480.531097,269.303986 472.830780,271.824036 465.130493,274.344116 
	C468.879395,270.698395 472.484589,266.889526 476.404114,263.437592 
	C488.247894,253.006683 500.212708,242.713196 512.132141,232.368271 
	C523.926208,222.132172 535.738525,211.917038 547.513245,201.658737 
	C559.039673,191.616730 570.492493,181.490036 582.048950,171.482941 
	C588.061646,166.276382 594.228210,161.247574 600.662598,156.069229 
	C601.000000,223.687561 601.000000,291.375122 601.000000,359.531372 
z"/>
<path fill="#EAEBED" opacity="1.000000" stroke="none" 
	d="
M464.867889,274.579468 
	C472.830780,271.824036 480.531097,269.303986 489.173584,266.475616 
	C489.173584,328.771667 489.173584,390.477997 489.256226,452.620178 
	C489.268860,474.547485 489.198456,496.038910 489.129608,517.530334 
	C489.123871,519.329041 489.128815,521.127747 489.128815,523.787781 
	C468.869843,516.774597 449.299438,509.999817 429.358124,503.241028 
	C416.143097,499.000031 403.236664,494.920990 390.466156,490.453430 
	C348.227692,475.677032 306.038300,460.760376 263.442963,445.868469 
	C240.518616,437.931274 217.995453,429.982574 195.440231,422.125946 
	C171.293015,413.714722 147.113815,405.395355 122.956276,397.013672 
	C121.634972,396.555237 120.384628,395.892212 117.979752,394.828247 
	C234.269730,354.564789 349.437531,314.689850 464.867889,274.579468 
z"/>
<path fill="#EAEBED" opacity="1.000000" stroke="none" 
	d="
M145.120483,320.684814 
	C136.085403,323.910217 127.306526,326.871338 118.169937,329.953156 
	C118.169937,244.195129 118.169937,158.833771 118.169937,72.645866 
	C194.014481,98.851639 269.602661,124.968834 345.578400,151.099136 
	C364.716064,157.734604 383.446503,164.413208 402.220856,170.966049 
	C429.955292,180.646271 457.721161,190.236511 485.472351,199.868790 
	C486.223785,200.129608 486.960358,200.433212 488.543091,201.037018 
	C486.856720,201.886948 485.856659,202.542252 484.761017,202.921722 
	C371.637543,242.101395 258.506897,281.260345 145.120483,320.684814 
z"/>
</svg>